HIERARCHY
ROOT Hips
{
	OFFSET 0.00000 0.00000 0.00000
	CHANNELS 6 Xposition Yposition Zposition Yrotation Zrotation Xrotation 
	JOINT Lumbar
	{
		OFFSET 0 0 0
		CHANNELS 3 Zrotation Xrotation Yrotation
		JOINT Neck
		{
			OFFSET 0.00 0.2701 0.00
			CHANNELS 3 Zrotation Xrotation Yrotation
			End Site
			{
				OFFSET 0.00 0.1379 0.00
			}
		}
		JOINT RightShoulder
		{
			OFFSET 0.0119 0.2289 0.1181
			CHANNELS 3 Zrotation Xrotation Yrotation
			JOINT RightElbow
			{
				OFFSET 0.00 -0.1475 0.00
				CHANNELS 2 Zrotation Yrotation
				JOINT RightWrist
				{
					OFFSET 0.00 -0.1605 0.00
					CHANNELS 2 Zrotation Xrotation
					End Site
					{
						OFFSET 0.0040 -0.1068 0.0006
					}
				}
			}
		}
		JOINT LeftShoulder
		{
			OFFSET 0.0119 0.2289 -0.1181
			CHANNELS 3 Zrotation Xrotation Yrotation
			JOINT LeftElbow
			{
				OFFSET 0.00 -0.1475 0.00
				CHANNELS 2 Zrotation Yrotation
				JOINT LeftWrist
				{
					OFFSET 0.00 -0.1605 0.00
					CHANNELS 2 Zrotation Xrotation
					End Site
					{
						OFFSET 0.0040 -0.1068 -0.0006
					}
				}
			}
		}
	}
	JOINT RightHip
	{
		OFFSET 0.0316 -0.0424 0.0458
		CHANNELS 3 Zrotation Xrotation Yrotation
		JOINT RightKnee
		{
			OFFSET 0.00 -0.2438 0.00
			CHANNELS 1 Zrotation
			JOINT RightAnkle
			{
				OFFSET 0.00 -0.2449 0.00
				CHANNELS 3 Zrotation Xrotation Yrotation
				End Site
				{
					OFFSET 0.1237 -0.0542 0.0051
				}
			}
		}
	}
	JOINT LeftHip
	{
		OFFSET 0.0316 -0.0424 -0.0458
		CHANNELS 3 Zrotation Xrotation Yrotation
		JOINT LeftKnee
		{
			OFFSET 0.00 -0.2438 0.00
			CHANNELS 1 Zrotation
			JOINT LeftAnkle
			{
				OFFSET 0.00 -0.2449 0.00
				CHANNELS 3 Zrotation Xrotation Yrotation
				End Site
				{
					OFFSET 0.1237 -0.0542 -0.0051
				}
			}
		}
	}
}
MOTION
Frames: 31
Frame Time: 0.02
-0.00028 -4e-05 5e-05 176.54462 -45.0173 0.24975 58.02018 0.4846 0.2261 -8.46865 -0.62957 -1.20856 9.78138 -103.72028 -87.14661 5.78689 57.81135 -20.50539 1.89264 166.38644 73.06536 50.99891 13.8848 -92.45769 -8.07303 9.09022 47.48516 -3.73739 -15.55707 -19.2497 -7.65059 -3.73952 -4.11707 50.42966 5.89677 14.37179 -24.37261 -7.8908 3.47762 3.98209
-0.00012 -3e-05 8e-05 176.49188 -45.02106 0.23589 58.00959 0.47827 0.25102 -8.494 -0.63116 -1.20775 9.96378 -103.64022 -87.14661 5.78689 57.86266 -20.6045 1.9606 166.38645 73.07839 50.8691 13.89235 -92.44769 -8.10696 9.11733 47.51665 -3.71224 -15.42015 -19.24911 -7.6652 -3.75007 -4.1227 50.45045 5.8778 14.26157 -24.37219 -7.9017 3.4867 3.98875
4e-05 -3e-05 0.0001 176.43926 -45.02481 0.22205 57.99901 0.47196 0.27586 -8.51932 -0.63276 -1.20694 10.14571 -103.56033 -87.14661 5.78689 57.91382 -20.70339 2.02832 166.38645 73.09141 50.73942 13.89995 -92.43771 -8.14083 9.14437 47.54809 -3.68716 -15.28361 -19.24854 -7.67977 -3.76059 -4.12831 50.47121 5.85885 14.15153 -24.37177 -7.91259 3.49577 3.99541
0.00021 -2e-05 0.00013 176.38668 -45.02857 0.20822 57.98845 0.46565 0.3007 -8.54459 -0.63435 -1.20613 10.32756 -103.48051 -87.14661 5.78689 57.96497 -20.80221 2.09606 166.38645 73.10441 50.60995 13.90749 -92.42774 -8.17468 9.1714 47.57949 -3.66209 -15.14711 -19.24796 -7.69434 -3.77111 -4.13392 50.49195 5.83993 14.04162 -24.37135 -7.92347 3.50482 4.00206
0.00037 -1e-05 0.00015 176.33399 -45.03234 0.19437 57.97787 0.45932 0.32561 -8.56986 -0.63592 -1.20531 10.50985 -103.40052 -87.14661 5.78689 58.01627 -20.90121 2.16405 166.38646 73.11742 50.48052 13.91495 -92.41775 -8.20854 9.19849 47.61095 -3.63694 -15.01025 -19.24736 -7.70895 -3.78165 -4.13955 50.51272 5.82099 13.93161 -24.37092 -7.93435 3.51388 4.00871
0.00053 -1e-05 0.00018 176.28152 -45.03604 0.18055 57.96729 0.45307 0.35032 -8.59528 -0.63757 -1.20451 10.69103 -103.32085 -87.14661 5.78689 58.06714 -20.99986 2.23119 166.38646 73.13046 50.35034 13.92281 -92.40779 -8.24242 9.22544 47.64232 -3.61199 -14.87439 -19.24685 -7.72345 -3.79212 -4.14513 50.53345 5.80201 13.82151 -24.37051 -7.94525 3.52296 4.01537
0.00069 -0 0.0002 176.22867 -45.03989 0.16668 57.95674 0.44666 0.3754 -8.62037 -0.63907 -1.20369 10.87422 -103.24064 -87.14661 5.78689 58.11879 -21.09912 2.29996 166.38646 73.1434 50.22167 13.92989 -92.39779 -8.27627 9.25263 47.67384 -3.58669 -14.73668 -19.24617 -7.73814 -3.80274 -4.1508 50.55424 5.78314 13.71169 -24.37008 -7.95611 3.532 4.02202
0.00085 0 0.00023 176.17618 -45.04359 0.15286 57.94615 0.44039 0.40014 -8.64579 -0.6407 -1.20288 11.05557 -103.16091 -87.1466 5.7869 58.16978 -21.19777 2.36724 166.38647 73.15646 50.09184 13.93763 -92.3878 -8.31009 9.2796 47.70522 -3.56171 -14.60064 -19.24564 -7.75266 -3.81322 -4.15639 50.57496 5.76417 13.60164 -24.36966 -7.967 3.54107 4.02867
0.00102 1e-05 0.00025 176.12404 -45.04715 0.13909 57.93556 0.43431 0.42447 -8.67154 -0.64254 -1.20208 11.23473 -103.08182 -87.14662 5.78689 58.21976 -21.29593 2.43269 166.38648 73.16958 49.95958 13.94643 -92.37794 -8.34414 9.30633 47.73645 -3.5371 -14.46671 -19.24529 -7.76697 -3.82352 -4.16187 50.59565 5.74505 13.49112 -24.36925 -7.97795 3.5502 4.03533
0.00117 2e-05 0.00028 176.06965 -45.05166 0.12499 57.92509 0.4272 0.4512 -8.69517 -0.64329 -1.20122 11.42665 -102.99919 -87.14659 5.7869 58.27493 -21.39769 2.50862 166.38646 73.18211 49.83826 13.94991 -92.3677 -8.37768 9.33452 47.76863 -3.5103 -14.32085 -19.2439 -7.78248 -3.83483 -4.16795 50.6167 5.72673 13.38273 -24.36879 -7.98861 3.55904 4.04198
0.00134 2e-05 0.0003 176.02015 -45.05406 0.11164 57.9143 0.42224 0.47283 -8.7234 -0.64631 -1.2005 11.59155 -102.92394 -87.14659 5.7869 58.31956 -21.49135 2.56248 166.38649 73.19604 49.69585 13.96411 -92.35803 -8.41175 9.35959 47.79871 -3.48814 -14.20003 -19.2447 -7.79547 -3.84402 -4.17277 50.63688 5.70678 13.27026 -24.36845 -7.99985 3.56845 4.04862
0.00153 3e-05 0.00035 175.98287 -45.05146 0.0998 57.90327 0.42344 0.4804 -8.76332 -0.65588 -1.20017 11.68436 -102.86941 -87.1467 5.78689 58.33152 -21.56641 2.55454 166.38656 73.21271 49.47905 14.01188 -92.35038 -8.45121 9.37658 47.82387 -3.47878 -14.14975 -19.25171 -7.80146 -3.84725 -4.17404 50.65533 5.68185 13.14298 -24.36825 -8.01297 3.5797 4.05545
0.00173 4e-05 0.0004 175.95072 -45.0466 0.08881 57.8918 0.42675 0.48283 -8.80804 -0.66767 -1.19997 11.75097 -102.82181 -87.14641 5.78691 58.33355 -21.63239 2.52451 166.38659 73.23118 49.24458 14.06947 -92.34231 -8.4901 9.39049 47.84678 -3.47407 -14.12426 -19.26089 -7.80495 -3.84837 -4.17406 50.67278 5.65537 13.01226 -24.36821 -8.02659 3.59146 4.06224
0.00193 5e-05 0.00044 175.91701 -45.04226 0.07778 57.88011 0.42893 0.48764 -8.85119 -0.67826 -1.19971 11.82656 -102.77125 -87.14683 5.78688 58.34267 -21.70057 2.50558 166.38677 73.2493 49.0284 14.12011 -92.33526 -8.52715 9.40536 47.87019 -3.46721 -14.08627 -19.26894 -7.80966 -3.85055 -4.17472 50.69024 5.62993 12.88553 -24.36819 -8.03977 3.60281 4.06892
0.00212 6e-05 0.00049 175.88004 -45.04007 0.06529 57.87022 0.43185 0.49228 -8.8918 -0.68974 -1.19947 11.90911 -102.72157 -87.14676 5.78687 58.34111 -21.77809 2.48275 166.38673 73.26462 48.76698 14.18201 -92.3284 -8.57459 9.42157 47.89578 -3.4605 -14.05363 -19.27759 -7.81402 -3.85234 -4.17507 50.70957 5.60308 12.74864 -24.36774 -8.05388 3.61492 4.07612
0.00232 7e-05 0.00054 175.85108 -45.03284 0.05604 57.85646 0.43372 0.49602 -8.9388 -0.69978 -1.19921 11.97768 -102.66963 -87.14543 5.78702 58.35916 -21.83248 2.46203 166.38671 73.28725 48.59795 14.22184 -92.31644 -8.59836 9.4349 47.91633 -3.45457 -14.01562 -19.28554 -7.81851 -3.85443 -4.17578 50.72479 5.5788 12.63197 -24.36826 -8.06617 3.62556 4.08222
0.0025 8e-05 0.00059 175.843 -45.01228 0.0557 57.83227 0.43212 0.49879 -9.00235 -0.7063 -1.19882 11.99406 -102.62167 -87.14843 5.7867 58.44287 -21.83236 2.45739 166.38739 73.32155 48.6686 14.20599 -92.33032 -8.57228 9.43493 47.92321 -3.44989 -13.95751 -19.29071 -7.82394 -3.85785 -4.17779 50.72868 5.56213 12.57326 -24.37128 -8.07337 3.63211 4.08535
0.00267 8e-05 0.00065 175.84277 -44.98669 0.05859 57.80413 0.42938 0.50082 -9.07206 -0.71108 -1.1984 12.02698 -102.56511 -87.14114 5.78737 58.54952 -21.80398 2.45345 166.38586 73.36525 48.83659 14.16587 -92.332 -8.51901 9.43287 47.92515 -3.44582 -13.89308 -19.29515 -7.82958 -3.86165 -4.18021 50.72853 5.54808 12.53486 -24.37531 -8.07872 3.63714 4.08738
0.00285 9e-05 0.0007 175.83899 -44.96339 0.05989 57.77778 0.4272 0.50298 -9.139 -0.71607 -1.19802 12.03248 -102.50957 -87.14317 5.78728 58.63393 -21.78885 2.44763 166.38759 73.40917 48.9729 14.13221 -92.31272 -8.46874 9.43631 47.92953 -3.44131 -13.83087 -19.3001 -7.83519 -3.8653 -4.18244 50.73041 5.53271 12.48621 -24.37894 -8.0849 3.64279 4.08988
0.00302 9e-05 0.00076 175.83544 -44.94009 0.06169 57.75167 0.42496 0.50567 -9.20631 -0.72373 -1.19754 12.01452 -102.48228 -87.15678 5.78566 58.74919 -21.78791 2.45292 166.38844 73.4317 49.05534 14.11937 -92.4039 -8.46002 9.42221 47.93296 -3.43753 -13.77184 -19.30433 -7.8405 -3.86879 -4.18465 50.73142 5.51776 12.44143 -24.38226 -8.09113 3.64873 4.09247
0.00322 9e-05 0.00081 175.83305 -44.91551 0.06325 57.72383 0.42247 0.50733 -9.27385 -0.72521 -1.19727 12.18332 -102.37415 -87.10472 5.791 58.82921 -21.73047 2.42888 166.37974 73.50411 49.27362 14.05578 -92.26393 -8.35573 9.44194 47.93725 -3.43245 -13.70492 -19.30993 -7.84645 -3.87271 -4.187 50.73329 5.50267 12.39388 -24.38654 -8.0968 3.65372 4.09463
0.00347 9e-05 0.00088 175.83333 -44.88943 0.06305 57.69442 0.42032 0.50504 -9.34333 -0.71142 -1.19759 11.63054 -102.22434 -87.19209 5.78271 58.59123 -21.70737 2.38723 166.40052 73.6854 49.80779 13.87011 -91.47984 -8.01593 9.57101 47.94495 -3.42271 -13.61321 -19.31893 -7.85472 -3.87807 -4.1899 50.73868 5.48585 12.33022 -24.39267 -8.10146 3.65642 4.09581
0.00374 8e-05 0.00094 175.83428 -44.86205 0.06257 57.66276 0.41784 0.50214 -9.41197 -0.69118 -1.19815 11.43271 -101.96649 -87.1432 5.78589 58.34713 -21.60062 2.30886 166.37536 73.9215 50.45905 13.63156 -90.47007 -7.57665 9.72861 47.95373 -3.41186 -13.51477 -19.32947 -7.86348 -3.88379 -4.1929 50.74507 5.46896 12.26381 -24.39987 -8.10557 3.65822 4.0966
0.00401 7e-05 0.00101 175.83394 -44.83481 0.06236 57.63096 0.41499 0.5002 -9.47947 -0.67302 -1.19859 11.96105 -101.63205 -86.96206 5.80718 58.25972 -21.40377 2.19995 166.3681 74.14993 51.10911 13.4096 -89.56323 -7.16895 9.86651 47.96212 -3.40197 -13.42188 -19.33957 -7.87165 -3.88916 -4.19573 50.75089 5.45258 12.20088 -24.4069 -8.10988 3.6605 4.0976
0.00426 7e-05 0.00108 175.83784 -44.80946 0.06155 57.6049 0.41423 0.49475 -9.55483 -0.65852 -1.19897 9.00116 -101.80097 -87.64584 5.73649 57.56469 -21.72042 2.2717 166.4804 74.30596 51.63715 13.21948 -88.63445 -6.81869 10.04395 47.96988 -3.38985 -13.31707 -19.34831 -7.88153 -3.89541 -4.19913 50.75701 5.43424 12.12897 -24.41246 -8.11438 3.66247 4.09844
0.00455 5e-05 0.00114 175.83322 -44.7797 0.06203 57.56517 0.40914 0.49721 -9.61203 -0.63474 -1.19968 13.06721 -100.92978 -86.43884 5.85197 58.08163 -20.98116 1.98195 166.19851 74.62563 52.32778 12.94921 -87.72298 -6.32445 10.1318 47.97929 -3.3825 -13.23708 -19.36056 -7.88776 -3.8998 -4.20132 50.76284 5.41995 12.07519 -24.42155 -8.1183 3.66484 4.0995
0.00492 -0 0.00117 175.80276 -44.74004 0.06489 57.49856 0.39121 0.51522 -9.63171 -0.58823 -1.20008 39.28631 -96.91021 -80.57569 6.55062 62.40773 -17.05961 0.49271 166.0312 75.37441 54.50452 12.48583 -86.68532 -5.47143 10.09235 47.99306 -3.38524 -13.21389 -19.37951 -7.88553 -3.8998 -4.20059 50.76729 5.41669 12.06897 -24.43822 -8.12159 3.66899 4.10161
0.00533 -8e-05 0.0012 175.76411 -44.69562 0.0693 57.41619 0.36911 0.54235 -9.63056 -0.53242 -1.20105 72.07709 -91.89604 -72.74698 7.42435 67.87869 -12.13039 -1.32579 165.27653 76.28072 56.68003 11.94204 -85.70535 -4.4782 9.94292 48.00855 -3.39337 -13.21807 -19.40246 -7.87933 -3.89777 -4.19856 50.77156 5.41751 12.08141 -24.45876 -8.12419 3.67349 4.1039
0.00573 -0.00015 0.00123 175.73051 -44.65211 0.07376 57.33447 0.34957 0.56959 -9.6311 -0.47994 -1.20252 99.94238 -87.54612 -65.42921 8.16876 72.50891 -7.85298 -2.84806 163.97068 77.12986 58.10756 11.4237 -84.86256 -3.53493 9.75437 48.02316 -3.40129 -13.21898 -19.42528 -7.87378 -3.89609 -4.19679 50.77605 5.41657 12.08753 -24.47876 -8.12656 3.67752 4.10589
0.00609 -0.0002 0.00126 175.69109 -44.61389 0.07492 57.2808 0.32724 0.57906 -9.66542 -0.43079 -1.20072 135.82813 -82.32976 -59.59022 9.11723 78.44611 -2.76092 -4.96594 165.99272 77.94867 62.54064 10.94559 -83.36472 -2.63054 9.923 48.03789 -3.4 -13.18241 -19.44093 -7.87297 -3.89678 -4.19635 50.77971 5.41529 12.08515 -24.49362 -8.13116 3.68283 4.10877
0.00655 -0.00031 0.00129 175.66212 -44.5635 0.08348 57.16419 0.30966 0.62743 -9.62323 -0.3729 -1.20597 156.78755 -78.64136 -50.36987 9.69014 81.99037 0.88103 -5.9518 161.10047 78.83144 60.91095 10.37121 -83.19436 -1.63291 9.34626 48.05317 -3.41885 -13.22864 -19.47258 -7.8615 -3.89214 -4.1929 50.78539 5.41559 12.10406 -24.52014 -8.13103 3.68558 4.10986
